<?xml version="1.0" standalone="no"?>
<!DOCTYPE svg PUBLIC "-//W3C//DTD SVG 20010904//EN"
 "http://www.w3.org/TR/2001/REC-SVG-20010904/DTD/svg10.dtd">
<svg version="1.0" xmlns="http://www.w3.org/2000/svg"
 width="1024.000000pt" height="1024.000000pt" viewBox="0 0 1024.000000 1024.000000"
 preserveAspectRatio="xMidYMid meet">

<g transform="translate(0.000000,1024.000000) scale(0.100000,-0.100000)"
fill="#000000" stroke="none">
<path d="M4868 10235 c-3 -4 -60 -11 -125 -17 -166 -14 -324 -34 -408 -53 -16
-4 -75 -16 -130 -27 -139 -28 -174 -36 -220 -49 -22 -6 -52 -13 -68 -16 -15
-3 -30 -9 -33 -14 -3 -5 -15 -9 -26 -9 -12 0 -35 -4 -52 -10 -17 -5 -83 -26
-146 -46 -63 -21 -119 -41 -125 -46 -5 -4 -18 -8 -30 -8 -12 0 -25 -4 -30 -8
-6 -4 -28 -14 -50 -21 -22 -7 -49 -16 -60 -21 -11 -4 -63 -25 -115 -46 -52
-21 -119 -51 -149 -66 -29 -15 -58 -28 -65 -28 -21 0 -410 -200 -466 -240 -14
-10 -47 -30 -74 -45 -139 -77 -429 -282 -625 -442 -194 -158 -537 -501 -707
-708 -112 -135 -344 -454 -344 -471 0 -2 -15 -26 -33 -52 -60 -89 -146 -243
-232 -417 -88 -179 -115 -241 -169 -385 -26 -69 -51 -133 -57 -142 -5 -10 -9
-25 -9 -33 0 -8 -4 -23 -10 -33 -16 -30 -81 -245 -97 -322 -2 -14 -8 -34 -13
-45 -9 -21 -14 -43 -31 -130 -5 -27 -14 -70 -19 -95 -5 -25 -14 -67 -19 -95
-23 -110 -54 -356 -73 -580 -15 -179 -16 -664 -1 -820 33 -339 72 -577 132
-822 6 -24 15 -60 20 -80 5 -21 17 -65 26 -98 9 -33 21 -73 25 -90 10 -39 58
-184 70 -210 5 -11 21 -56 36 -100 15 -44 31 -84 35 -89 5 -6 9 -16 9 -23 0
-7 18 -51 40 -98 22 -47 40 -87 40 -90 0 -9 152 -316 181 -366 14 -25 37 -65
51 -90 47 -82 160 -264 176 -282 8 -9 20 -26 26 -36 22 -38 145 -205 203 -276
13 -16 30 -37 36 -45 20 -26 109 -132 147 -175 188 -212 413 -429 609 -585 24
-19 58 -46 75 -60 30 -25 166 -125 197 -145 8 -5 68 -45 132 -88 64 -42 119
-77 122 -77 4 0 19 -8 33 -19 31 -21 76 -46 217 -121 128 -68 117 -62 210
-105 44 -21 97 -46 118 -56 22 -10 43 -19 48 -19 4 0 32 -11 61 -23 29 -13 80
-34 113 -46 33 -13 68 -27 77 -32 10 -5 25 -9 33 -9 8 0 23 -4 33 -10 28 -15
255 -87 347 -110 28 -6 59 -16 70 -20 11 -5 34 -11 50 -14 17 -2 49 -10 73
-15 393 -99 790 -145 1232 -145 240 0 368 7 605 33 125 14 440 68 535 91 25 7
62 14 83 17 20 3 40 9 43 14 3 5 20 9 39 9 19 0 37 5 40 10 3 6 15 10 26 10
29 0 343 99 381 120 10 6 25 10 33 10 8 0 23 4 33 9 9 5 53 24 97 41 44 18 96
39 115 47 19 8 44 19 55 23 50 20 298 143 370 183 180 100 362 211 391 238 11
10 25 19 31 19 5 0 18 9 28 20 10 11 22 20 28 20 5 0 23 11 41 25 17 14 36 29
41 33 299 218 584 487 835 787 69 83 163 198 183 226 84 117 112 156 170 242
37 54 67 100 67 103 0 3 18 32 40 64 22 32 40 61 40 65 0 3 11 22 24 43 83
132 225 426 310 642 21 52 42 103 47 112 5 10 9 25 9 33 0 8 4 23 10 33 13 24
80 234 111 347 6 22 15 48 20 57 5 10 9 31 9 47 0 17 4 32 9 35 5 3 11 23 14
43 3 21 10 58 16 83 15 61 60 308 72 400 40 280 55 685 40 1007 -12 243 -22
368 -40 483 -5 36 -14 97 -20 135 -6 39 -18 108 -27 155 -9 47 -20 105 -24
130 -9 49 -23 103 -39 163 -18 61 -28 99 -44 157 -19 69 -84 267 -99 300 -12
29 -18 43 -48 125 -25 67 -46 115 -113 255 -100 213 -111 235 -119 238 -4 2
-8 7 -8 12 0 10 -90 166 -142 247 -16 23 -28 44 -28 47 0 9 -74 121 -82 124
-5 2 -8 9 -8 16 0 7 -9 21 -20 31 -11 10 -20 22 -20 26 0 5 -17 30 -37 57 -21
27 -51 66 -68 88 -274 359 -603 696 -909 929 -220 168 -436 320 -486 342 -8 3
-34 19 -57 35 -23 15 -45 28 -48 28 -4 0 -19 8 -33 19 -50 34 -372 201 -488
252 -32 15 -79 35 -104 46 -25 11 -67 28 -95 38 -27 10 -54 22 -59 27 -6 4
-16 8 -23 8 -7 0 -32 8 -56 19 -23 10 -58 24 -77 31 -19 7 -44 16 -55 21 -11
4 -58 20 -105 35 -47 14 -110 34 -141 45 -30 10 -65 19 -77 19 -11 0 -23 4
-26 9 -3 5 -20 11 -38 14 -18 3 -51 10 -73 16 -98 25 -161 38 -350 72 -136 25
-303 47 -450 60 -140 12 -588 23 -597 14z m-28 -2984 c107 -32 168 -60 270
-125 69 -43 225 -194 235 -227 4 -10 11 -19 16 -19 5 0 9 -5 9 -11 0 -6 13
-29 28 -52 39 -57 91 -213 109 -322 10 -63 9 -1664 -2 -1725 -4 -25 -11 -49
-16 -54 -5 -6 -9 -17 -9 -26 0 -29 -67 -187 -101 -237 -57 -84 -209 -233 -238
-233 -6 0 -11 -4 -11 -9 0 -10 -123 -72 -190 -96 -107 -38 -120 -39 -1095 -45
-528 -3 -973 -10 -990 -14 -42 -11 -108 -42 -161 -74 -24 -16 -187 -170 -362
-343 -199 -197 -333 -323 -360 -337 -73 -37 -148 -28 -195 23 -50 54 -47 -31
-44 1630 2 853 7 1566 11 1585 10 51 27 111 38 140 6 14 15 36 21 50 17 42 59
123 81 155 48 72 253 255 284 255 6 0 12 3 14 8 10 22 193 93 303 116 11 2
535 3 1165 2 919 -2 1154 -5 1190 -15z m3005 -191 c3 -5 13 -10 20 -10 35 0
257 -125 285 -160 3 -3 21 -17 40 -30 35 -24 83 -62 131 -104 14 -12 36 -30
49 -39 107 -75 481 -452 573 -578 26 -35 55 -73 64 -84 10 -11 24 -32 32 -48
8 -15 18 -27 23 -27 4 0 8 -5 8 -12 0 -6 6 -19 14 -27 12 -15 66 -108 90 -158
6 -13 14 -23 19 -23 4 0 7 -6 7 -13 0 -7 8 -31 19 -53 38 -80 66 -172 94 -304
23 -112 11 -368 -22 -482 -6 -21 -15 -53 -20 -70 -37 -138 -129 -301 -236
-420 -52 -57 -109 -97 -121 -85 -4 4 -7 67 -6 140 2 211 -32 430 -87 562 -5
11 -16 38 -25 60 -10 22 -22 49 -28 60 -6 11 -21 37 -32 58 -11 20 -23 37 -28
37 -4 0 -8 5 -8 11 0 34 -208 252 -320 336 -71 53 -186 125 -227 144 -18 7
-33 18 -33 22 0 5 -6 7 -12 5 -10 -4 -13 -218 -14 -1024 -1 -965 -6 -1197 -24
-1233 -4 -9 -14 -36 -21 -61 -16 -56 -72 -162 -113 -215 -111 -143 -320 -287
-486 -334 -25 -7 -56 -17 -69 -23 -33 -12 -346 -11 -371 2 -10 5 -28 10 -39
10 -12 0 -29 4 -39 9 -9 5 -28 13 -42 19 -114 45 -189 92 -260 162 -75 73
-150 176 -150 205 0 8 -4 15 -10 15 -5 0 -10 11 -10 24 0 14 -4 27 -9 30 -23
15 -38 236 -21 316 6 30 16 63 21 72 5 10 9 24 9 31 0 19 47 114 80 162 43 62
146 163 208 202 75 48 161 93 178 93 8 0 22 4 32 9 70 37 198 52 437 50 l220
0 5 1343 c4 996 8 1350 17 1369 21 48 61 68 135 69 37 0 70 -4 73 -10z"/>
</g>
</svg>
